<svg xmlns="http://www.w3.org/2000/svg" xmlns:xlink="http://www.w3.org/1999/xlink" viewBox="0 0 534.1 613.68"><defs><style>.cls-1{fill:url(#linear-gradient);}.cls-2{fill:url(#linear-gradient-2);}.cls-3{fill:url(#linear-gradient-3);}</style><linearGradient id="linear-gradient" x1="447.31" y1="71.86" x2="381.74" y2="-8.66" gradientUnits="userSpaceOnUse"><stop offset="0.04" stop-color="#0052d4"/><stop offset="1" stop-color="#6fb1fc"/></linearGradient><linearGradient id="linear-gradient-2" x1="278.1" y1="397.94" x2="97.5" y2="480.77" xlink:href="#linear-gradient"/><linearGradient id="linear-gradient-3" x1="-1525.52" y1="306.84" x2="-917.79" y2="306.84" gradientTransform="matrix(-1, 0, 0, 1, -917.79, 0)" xlink:href="#linear-gradient"/></defs><g id="Layer_2" data-name="Layer 2"><g id="Layer_1-2" data-name="Layer 1"><path class="cls-1" d="M408.36,46.7A21.47,21.47,0,1,1,426.2,71.27,21.46,21.46,0,0,1,408.36,46.7Z"/><path class="cls-2" d="M132.3,475.19c-9.86-14.24-31.25-11.26-30.36-28.84.94-18.88,24.38-22.14,46.94-13.61C165.3,439,178.07,455,172.92,475c-4.78,18.6-18.41,25.33-27.64,22.62C135,494.61,137,481.92,132.3,475.19Z"/><path class="cls-3" d="M534.1,93.4c-28.75-9.72-58.18-5.33-84.65-1.61S396.7,84.46,378,65.2A214.23,214.23,0,0,0,211.55.34C104.9,6.3,8.45,92.87.77,199.41-6.14,295.18,33.86,368.35,109.56,397c52.16,19.73,77.14,30.54,92,99.79,17,79.47,114,120.79,201.78,116.6A214.55,214.55,0,0,0,534.1,561.44Z"/></g></g></svg>