<svg xmlns="http://www.w3.org/2000/svg" xmlns:xlink="http://www.w3.org/1999/xlink" viewBox="0 0 300 329.48"><defs><style>.cls-1{fill:url(#linear-gradient);}.cls-2{fill:url(#linear-gradient-2);}</style><linearGradient id="linear-gradient" x1="-46.28" y1="281.57" x2="49.55" y2="281.57" gradientUnits="userSpaceOnUse"><stop offset="0.04" stop-color="#0052d4"/><stop offset="1" stop-color="#6fb1fc"/></linearGradient><linearGradient id="linear-gradient-2" x1="-140.42" y1="149.56" x2="387.53" y2="149.56" xlink:href="#linear-gradient"/></defs><g id="Layer_2" data-name="Layer 2"><g id="Layer_1-2" data-name="Layer 1"><path class="cls-1" d="M1.64,233.65c-.55,0-1.09.07-1.64.09V329.4c.55,0,1.09.08,1.64.08a47.92,47.92,0,0,0,0-95.83Z"/><path class="cls-2" d="M0,217.87c26.54,1.5,42.43,7.44,63,40.84,27.85,45.21,96.61,49.46,149.75,27.69,65.56-26.86,100.54-96.67,82.55-165.21A141.23,141.23,0,0,0,277.76,81C266,62.53,254.08,49.71,254.09,20.53A92.91,92.91,0,0,0,251.69,0H0Z"/></g></g></svg>