<?xml version="1.0" standalone="no"?>
<!DOCTYPE svg PUBLIC "-//W3C//DTD SVG 20010904//EN"
 "http://www.w3.org/TR/2001/REC-SVG-20010904/DTD/svg10.dtd">
<svg version="1.0" xmlns="http://www.w3.org/2000/svg"
 width="155.000000pt" height="117.000000pt" viewBox="0 0 155.000000 117.000000"
 preserveAspectRatio="xMidYMid meet">

<g transform="translate(0.000000,117.000000) scale(0.100000,-0.100000)"
fill="#000000" stroke="none">
<path d="M399 1154 c-13 -16 -12 -19 78 -280 2 -6 -10 -17 -27 -24 -17 -7 -56
-28 -86 -46 l-56 -34 -44 44 c-68 68 -223 118 -253 82 -32 -38 13 -241 67
-306 l28 -33 -33 -50 c-42 -63 -65 -142 -67 -231 l-1 -71 60 1 c75 1 159 38
207 92 l34 38 30 -19 c16 -10 70 -39 120 -63 l92 -44 -14 -38 c-18 -50 -18
-146 0 -161 10 -9 32 -9 87 0 96 15 169 42 225 85 36 28 59 36 122 45 165 23
300 85 419 194 58 52 163 193 163 218 0 27 -90 144 -165 216 -61 57 -106 89
-167 119 -79 39 -183 72 -226 72 -11 0 -39 16 -63 36 -95 80 -224 125 -480
168 -27 5 -40 2 -50 -10z m259 -100 c48 -14 112 -37 142 -51 l55 -25 -85 -18
c-47 -10 -118 -29 -158 -43 -53 -19 -74 -23 -77 -14 -3 7 -18 52 -35 101 l-30
89 50 -7 c28 -4 90 -18 138 -32z m393 -169 c71 -19 157 -59 221 -103 52 -36
144 -132 182 -189 l28 -42 -33 -48 c-159 -235 -459 -352 -725 -282 -109 28
-264 95 -352 152 -40 26 -77 47 -81 47 -5 0 -26 -23 -46 -51 -25 -36 -51 -57
-88 -75 -83 -38 -91 -35 -84 32 7 69 49 157 88 186 38 28 37 47 -5 87 -43 42
-76 116 -83 188 l-6 54 29 -7 c50 -12 100 -42 132 -79 18 -20 32 -40 32 -45 0
-5 8 -14 18 -19 15 -8 29 -2 68 25 93 67 304 156 435 184 59 12 192 5 270 -15z
m-287 -740 c18 -4 25 -10 19 -16 -13 -13 -110 -46 -162 -54 l-43 -7 7 43 c13
78 15 80 87 59 35 -10 76 -21 92 -25z"/>
<path d="M825 788 c-36 -79 -48 -149 -43 -267 6 -132 23 -186 58 -186 21 0 25
4 24 30 -1 17 -7 57 -14 90 -16 79 -8 195 20 270 31 82 31 109 2 113 -18 3
-27 -6 -47 -50z"/>
<path d="M965 809 c-51 -97 -70 -217 -55 -332 19 -135 64 -227 104 -211 22 9
20 27 -11 103 -24 59 -27 79 -28 181 0 97 4 125 23 175 32 81 33 109 5 113
-16 2 -26 -5 -38 -29z"/>
<path d="M1117 692 c-40 -44 -6 -106 54 -100 47 4 71 46 49 86 -20 35 -77 43
-103 14z"/>
</g>
</svg>
