<svg xmlns="http://www.w3.org/2000/svg" xmlns:xlink="http://www.w3.org/1999/xlink" viewBox="0 0 661 373.07"><defs><style>.cls-1{isolation:isolate;}.cls-2{fill:url(#radial-gradient);}.cls-3{fill:url(#radial-gradient-2);}.cls-4{fill:url(#radial-gradient-3);}.cls-5{fill:url(#radial-gradient-4);}.cls-6{fill:url(#radial-gradient-5);}.cls-7{fill:#f2a64c;}.cls-8{fill:#dd7f3a;}.cls-9{fill:#cec857;}.cls-10{fill:#e8dc72;}.cls-11{fill:#b25a3b;}.cls-12{fill:#994930;}.cls-13{fill:#753220;}.cls-14{fill:#a0983c;}.cls-15{fill:#ef8f6f;}.cls-16{fill:#a0513c;}.cls-16,.cls-27,.cls-40{mix-blend-mode:multiply;}.cls-16,.cls-27{opacity:0.5;}.cls-17{fill:#404f66;}.cls-18{fill:#2d3a4c;}.cls-19{fill:#ffe2cf;}.cls-20{fill:#7f4d2b;}.cls-21{fill:#542c23;}.cls-22{fill:#ffeae6;}.cls-23{fill:#f7a27c;}.cls-24{fill:#ffb9ae;}.cls-25{fill:#664938;}.cls-26{fill:#ffd176;}.cls-27,.cls-69{fill:#f9d0b9;}.cls-28{fill:#843720;}.cls-29{fill:#a85436;}.cls-30{fill:#543c32;}.cls-31{fill:#4f2119;}.cls-32{fill:#fff2de;}.cls-33{fill:#ddc99e;}.cls-34{fill:#6f829e;}.cls-35{fill:#fff797;}.cls-36{fill:#7f4654;}.cls-37{fill:#6b3444;}.cls-38{fill:#ccb483;}.cls-39{fill:#91c9c3;}.cls-40,.cls-44{fill:#6eafa5;}.cls-40{opacity:0.7;}.cls-41{fill:#f9ce8a;}.cls-42{fill:#f2ba70;}.cls-43{fill:#72afa6;}.cls-45{fill:#a2ddd4;}.cls-46{fill:#c14c4c;}.cls-47{fill:#a03333;}.cls-48{fill:#efbd7b;}.cls-49{fill:#e0965f;}.cls-50{fill:#bfefe8;}.cls-51{fill:#ad687b;}.cls-52{fill:#ffe5a4;}.cls-53{fill:#b75a44;}.cls-54{fill:#8e3d2d;}.cls-55{fill:#754b3c;}.cls-56{fill:#5b291f;}.cls-57{fill:#fff5de;}.cls-58{fill:#ffae85;}.cls-59{fill:#282828;}.cls-60{fill:#b76a4f;}.cls-61{fill:#fff9e9;}.cls-62{fill:#a0553f;}.cls-63{fill:#81adc9;}.cls-64{fill:#aed1e5;}.cls-65{fill:#5e3424;}.cls-66{fill:#ffe5cc;}.cls-67{fill:#d1b7b0;}.cls-68{fill:#111;}.cls-70{fill:#281b19;}.cls-71{fill:#444;}.cls-72{fill:#332320;}.cls-73{fill:#edddda;}.cls-74{fill:#d8c2bf;}.cls-75{fill:#705648;}.cls-76{fill:#543d32;}.cls-77{fill:#9b9b9b;}.cls-78{fill:#636363;}.cls-79{fill:#a8a8a8;}.cls-80{fill:#4c403f;}.cls-81{fill:#3a2e2d;}.cls-82{fill:#d1bcb8;}.cls-83{fill:#b29a96;}</style><radialGradient id="radial-gradient" cx="54" cy="365.57" r="54.34" gradientTransform="translate(0 321.84) scale(1 0.12)" gradientUnits="userSpaceOnUse"><stop offset="0" stop-opacity="0.21"/><stop offset="1" stop-opacity="0"/></radialGradient><radialGradient id="radial-gradient-2" cx="254" cy="366.57" r="54.34" gradientTransform="translate(0 322.72) scale(1 0.12)" xlink:href="#radial-gradient"/><radialGradient id="radial-gradient-3" cx="318" cy="365.57" r="54.34" xlink:href="#radial-gradient"/><radialGradient id="radial-gradient-4" cx="505" cy="366.57" r="54.34" gradientTransform="translate(0 322.72) scale(1 0.12)" xlink:href="#radial-gradient"/><radialGradient id="radial-gradient-5" cx="607" cy="364.57" r="54.34" gradientTransform="translate(0 320.96) scale(1 0.12)" xlink:href="#radial-gradient"/></defs><g class="cls-1"><g id="Layer_2" data-name="Layer 2"><g id="Layer_1-2" data-name="Layer 1"><ellipse class="cls-2" cx="54" cy="365.57" rx="54" ry="6.5"/><ellipse class="cls-3" cx="254" cy="366.57" rx="54" ry="6.5"/><ellipse class="cls-4" cx="318" cy="365.57" rx="54" ry="6.5"/><ellipse class="cls-5" cx="505" cy="366.57" rx="54" ry="6.5"/><ellipse class="cls-6" cx="607" cy="364.57" rx="54" ry="6.5"/><path class="cls-7" d="M103.13,152.39c5,6.24,16.25,25.21,25.27,14.28s-11.82-57.62-25.55-65S93.45,140.37,103.13,152.39Z"/><path class="cls-8" d="M99.05,101c-.87,13.3,6.62,16.14,11.85,23.74,4.74,6.9,11.14,36.86,19.63,31.87.25,4.34-.35,7.88-2.13,10-9,10.93-20.65-6.48-25.67-12.71C94.09,143.22,90,104,99.05,101Z"/><path class="cls-9" d="M84.8,48.18c-.8-1.13-1-1.57,7.19-4,4-1.15,7.69-1.44,8.09-.15C102.17,50.91,87.67,52.21,84.8,48.18Z"/><path class="cls-10" d="M94.61,45.89A3.36,3.36,0,1,1,98,49.61,3.55,3.55,0,0,1,94.61,45.89Z"/><path class="cls-11" d="M69.22,34.22C76.31,20.27,77,7.23,64.73.55,53-5.81,10.92,45.25,46.51,53.5,62.53,57.21,69.22,34.22,69.22,34.22Z"/><path class="cls-12" d="M55.2,2.58C49.24,9,52.82,13.22,55.09,19c2.49,6.41,8.54,8.7,18.35,4.15a51,51,0,0,1-4.22,11s-6.8,24.2-22.82,20.46C15.71,47.53,39,12.41,55.2,2.58Z"/><path class="cls-13" d="M51.44,54.91C48.83,51,47.8,42.35,49.16,33,50.35,24.77,53,18.16,56,15.29c.41,1.2.86,2.43,1.26,3.75,1.34,4.36,4,6.8,8,6.5a54.5,54.5,0,0,1-.41,12.35A47.5,47.5,0,0,1,61.48,50.1C58.91,53.41,55.59,55.69,51.44,54.91Z"/><path class="cls-14" d="M57.92,99.11C53.13,102,45.44,61.54,50,50.44s35.13-1.68,35.13-1.68l.21,45.66Z"/><path class="cls-9" d="M49.75,50.44c1.46-3.53,5.58-5,10.51-5.32-5.66,9.89-6.35,15.41-4.53,26,1.62,9.38,6.33,23.53,8.24,26.92l-6.26,1.06C52.89,102,45.14,61.54,49.75,50.44Z"/><polygon class="cls-15" points="55.89 46.38 56.76 38.4 64.2 38.4 64.84 46.38 55.89 46.38"/><path class="cls-16" d="M57.51,51.39l-5.34-4a14.66,14.66,0,0,1,3.75-1.54l.66-6L61,41.12Z"/><path class="cls-17" d="M36.66,313.93c.94-6.6,9.57-20.32,10.37-25.13,4.08-24.51,14.76-55,15.08-89.23l45.55,1.57c.63,22.31-9.17,72.42-13.19,85.14-5.66,17.91-16,61.58-17.59,79.49H73.11c1.25-5.66-.33-41.26,1.88-53.2,1.57-8.48,6.6-21.89,6.91-24.4s3.67-49.94.2-49.94c-3.14,0-17.16,37.37-25,50.25-2.66,4.37-2.51,15.71-5.65,26.08s-21.2,51.21-21.2,51.21H26.61C32,349.75,36.15,317.48,36.66,313.93Z"/><path class="cls-18" d="M69.81,219.47C66,240,54.35,264.94,50.26,289.44c-.8,4.81-9.42,18.54-10.36,25.14-.5,3.5-4.61,35-9.85,51.19H26.61c5.34-16,9.54-48.29,10-51.84.94-6.6,9.57-20.32,10.37-25.13,4.08-24.51,14.76-55,15.08-89.23l45.55,1.57c.65,2,.32,7.44-.32,10.89C102.16,216.23,84.37,220.44,69.81,219.47Z"/><path class="cls-18" d="M81.9,288.17c.27-2.13,2.72-36.55,1.34-47,.91-1.48,1.62-2.33,2.1-2.33,3.47,0,.11,47.42-.2,49.94s-5.34,15.91-6.91,24.4c-2.14,11.55-.73,45.25-1.78,52.55H73.11c1.25-5.66-.33-41.26,1.88-53.2C76.56,304.09,81.59,290.68,81.9,288.17Z"/><path class="cls-19" d="M49.12,30.12c.6,8.82,2.1,11.31,10.58,12.17,9.42,1,16.2-3.26,16.81-7.53,1.09-7.67-2.58-10.64-4.41-21.56C71.23,8,66.65,1.85,59.92,6.29,55,9.54,48.46,20.36,49.12,30.12Z"/><path class="cls-20" d="M63.09,24.06c0-1.3-.34-2.4-.8-2.46s-.87.95-.89,2.25.33,2.4.8,2.46S63.07,25.36,63.09,24.06Z"/><path class="cls-20" d="M71.55,23c-.07-1.3-.52-2.39-1-2.43s-.8,1-.73,2.26.52,2.39,1,2.44S71.62,24.31,71.55,23Z"/><path class="cls-19" d="M69.78,26.47A1.64,1.64,0,0,0,67.61,26c-.92.38-1.43,1.22-1.16,1.87a1.64,1.64,0,0,0,2.17.49C69.54,28,70.05,27.12,69.78,26.47Z"/><path class="cls-15" d="M68.7,27.85a1.63,1.63,0,0,1-2.16-.49.7.7,0,0,1,0-.12A1.28,1.28,0,0,0,66,28.67a1.63,1.63,0,0,0,2.17.5,1.67,1.67,0,0,0,1.19-1.75A2.38,2.38,0,0,1,68.7,27.85Z"/><path class="cls-21" d="M62.86,31.93c.12-.58,6.52-.93,7.22-.8s-2.67,6-4.41,5.59C64.46,36.43,62.69,32.74,62.86,31.93Z"/><path class="cls-22" d="M63.73,34.13l5.21-.51c.77-1.22,1.25-2.37,1-2.43-.66-.12-6.74.21-6.86.76A4.94,4.94,0,0,0,63.73,34.13Z"/><path class="cls-11" d="M63.88,16.55a5.59,5.59,0,0,0-4.83,4.13,8.73,8.73,0,0,1,5.15-2.6Z"/><path class="cls-11" d="M69.07,16.45,69.4,18a14,14,0,0,1,4.31,2.4S70.93,16.59,69.07,16.45Z"/><path class="cls-23" d="M59.92,6.29a10.24,10.24,0,0,1,1.35-.75C56.56,9.61,51.11,19.43,51.71,28.4c.6,8.81,2.1,11.31,10.57,12.16A21.5,21.5,0,0,0,74.11,38.7c-2.86,2.51-8,4.24-14.41,3.59-8.48-.86-10-3.35-10.58-12.17C48.46,20.36,55,9.54,59.92,6.29Z"/><path class="cls-11" d="M63.21,4c2.31,1.78,2.63,14.91-15.38,13.8C54.93,14.08,59.37,1,63.21,4Z"/><path class="cls-11" d="M63.59,3.9c1.28-1.62,10.17-1.6,8.9,11.29C70.19,10,61.47,6.6,63.59,3.9Z"/><path class="cls-7" d="M107.77,208.58c2.43-13.35,13.2-92.48-6.07-108S47.45,99.76,42,111.91c-3.3,7.37-4.92,26.29,9.74,58.12,5.56,12.08,7.65,33.31,9.53,40.43C67.14,216.33,106.93,213.18,107.77,208.58Z"/><path class="cls-8" d="M66.09,95.56c2.57-.19,4.22,4.17,6.5,3.52a135.23,135.23,0,0,1-4.79,32.86,2.25,2.25,0,0,1-2.34.1,2.43,2.43,0,0,1-1.15-2.12c0-9.25.78-23.95-8-30.18C57.22,99.12,62.8,95.79,66.09,95.56Z"/><path class="cls-8" d="M68.25,131.47a19.26,19.26,0,0,1,3.6,5.25s-7.64-1.88-7.51-6.41Z"/><path class="cls-8" d="M101.13,118.1a19.3,19.3,0,0,1,5.37,3.42s-7.77,1.26-9.43-3Z"/><path class="cls-8" d="M81.62,87.92c2.14-1.44,5.74,1.52,7.39-.19a135.38,135.38,0,0,1,12.23,30.87,2.24,2.24,0,0,1-2,1.26,2.39,2.39,0,0,1-2-1.27c-4.66-8-11.27-21.15-22-22.18C75.7,95.43,78.89,89.76,81.62,87.92Z"/><path class="cls-24" d="M65.88,102.11c-1.49-2.79,2.87-6,9.75-7.09s13.66.21,15.15,3-2.87,6-9.75,7.09S67.37,104.89,65.88,102.11Z"/><path class="cls-25" d="M104.44,114.86c-3-11.9-12.57-29.38-21.07-36.43,0,0-6.7,4.5-10.52,8.71-1.52,1.67,1.44,8.73,4.37,9.14,10.89.94,18.63,11.41,23.11,18.56a2.43,2.43,0,0,0,2,1.14A2.4,2.4,0,0,0,104.44,114.86Z"/><path class="cls-7" d="M55.72,148.36c-4.4,5.86-13.91,21.06-25.22,13.52s3.54-48.08,17-56.25S64.21,137.05,55.72,148.36Z"/><path class="cls-8" d="M28.57,137.81c-1.37,8.18-.59,15,3.32,17.78,12.84,9.2,20.9-6,25.3-11.83,1-1.34,2-5.62,2.68-7.63-.71,5-1.91,10.7-4,13.46-4.41,5.86-12.3,22-25.63,13.11C25.14,159.28,25.45,148.9,28.57,137.81Z"/><path class="cls-26" d="M45.54,140.53C37,137.29,22.9,158.16,22.9,158.16s7.11,4,11.48,2.26c0,0,3.4,7.61,6.47,8.74C45.54,163.66,54.12,143.76,45.54,140.53Z"/><path class="cls-26" d="M128.53,147.71c-8.39-1.43-17.12,21.9-17.12,21.9s7.23,2.52,10.84-.11c0,0,4.55,6.77,7.55,7.26C133,170.41,136.93,149.14,128.53,147.71Z"/><path class="cls-19" d="M151.85,118.33c-7.57,10.22-35.5,28.22-35.21,47.11,0,3,4.56,6.44,9.79,5.6,3.36-.54,10.2-8,12.89-14,5.51-12.34,8.55-30.12,15-37.79Z"/><path class="cls-23" d="M122.82,167.83c3.38-.36,10.61-7.42,13.62-13.29,5.92-11.52,9.86-28.13,16.17-35.93l1.66.63c-6.4,7.67-9.44,25.45-15,37.79-2.69,6-9.53,13.47-12.89,14-4.55.73-8.57-1.78-9.56-4.43A10,10,0,0,0,122.82,167.83Z"/><path class="cls-15" d="M149.46,121.14a35.71,35.71,0,0,0,2.39-2.81l.54.2C151.48,119.37,150.5,120.24,149.46,121.14Z"/><path class="cls-15" d="M121.29,151a23.14,23.14,0,0,0-2.28,9c-.09,3,4.28,6.63,9.54,6,2.6-.3,7.45-4.6,10.89-9.26l-.12.29c-2.69,6-9.53,13.47-12.89,14-5.23.84-9.75-2.59-9.79-5.6C116.56,160.53,118.41,155.68,121.29,151Z"/><path class="cls-15" d="M69.5,101.4l3.38-32.5,12.26,6.76,2.53,24.63S77.45,107,69.5,101.4Z"/><path class="cls-25" d="M72.08,127.65c2.51-12,3.54-31.84-1-41.89,0,0-8.43-.55-12.09,2.38-1.76,1.41-3.71,9.32-1.26,11,9.39,5.62,9.78,18.34,10.68,26.73a2.43,2.43,0,0,0,1.35,1.92A2.41,2.41,0,0,0,72.08,127.65Z"/><path class="cls-11" d="M72.82,81.69C64.17,72.4,50.1,57.15,58.71,47.36c0,0-3.22-6.65,1.24-9s6.61,2.23,6.61,2.23-2.64-9.7,2.86-12S77.34,30,77.34,30s5.34-7,11.1-3.4a15.54,15.54,0,0,1,4,4.35s5.23-3.33,7.76-.41-5,15.45-5,15.45Z"/><path class="cls-27" d="M42.3,110.32A27.86,27.86,0,0,1,45.68,107a41.45,41.45,0,0,1,10.68-7.21l0,0a9.33,9.33,0,0,1,.8-.51c-2.07-.18-4.53-7.21-6.32-16C46.67,61.42,53,46,61.56,46.54c4.8.33,22.53,35.57,26.46,36.65A84.66,84.66,0,0,1,97.65,97.9a28.81,28.81,0,0,1,4,2.7c.38.31.76.66,1.12,1l0,0a13.74,13.74,0,0,1,1.6,1,14.22,14.22,0,0,1-3,3.41,28.79,28.79,0,0,0-1.37-3.21,58.79,58.79,0,0,1-5.6,3.83,60.59,60.59,0,0,1-20.63,8c.18-1.74.21-3,.26-3.71-1.21-.57-5.71.78-7.25,2.86.08.46.13.86.24,1.51C63.55,115.72,49.75,113.9,42.3,110.32Z"/><path class="cls-28" d="M58.71,47.36s-3.22-6.65,1.24-9,6.61,2.23,6.61,2.23-1.63-6,.39-9.69c0,.36,0,.73,0,1.1,0,12.58,13.48,19.52,25.88,20.49l-20,29.16C64.17,72.4,50.1,57.15,58.71,47.36Z"/><path class="cls-19" d="M69.75,57.42S70.28,75.57,72,80c2.5,6.57,14,12.78,23.66,13.19,3.23-10.65,5.42-26.64,3-33.24-.75-2.08,1.79-3.71,1.23-5.46C96.23,43,87.08,36.78,79,39.15,69.69,41.86,69.32,48.25,69.75,57.42Z"/><path class="cls-15" d="M90.69,42.68a2.46,2.46,0,0,1,.86,0,2.13,2.13,0,0,1,2.22-1,3.32,3.32,0,0,1,1.11.46,2.54,2.54,0,0,1,1.73,1.34c.61,1.18,2.85,6.27-5.73,3.43-.21-.06,0-.39.11-.58a1.28,1.28,0,0,1-1.11-.81.88.88,0,0,1,.27-.82,1.14,1.14,0,0,1-.84-.74C89.16,43.44,89.78,42.83,90.69,42.68Z"/><path class="cls-23" d="M90.44,54.83c0,.57-1.18,4.88-3.17,5s-7.67-.33-3.42-4S90.44,54.83,90.44,54.83Z"/><path class="cls-23" d="M92.83,67.84c-.28-7.64-.37-15.76,6.35-13.22a3.27,3.27,0,0,1,.77.44s0,.13-.06.17C98.07,58.17,102.16,70.64,98,82,94.78,82.05,93.1,75.46,92.83,67.84Z"/><path class="cls-29" d="M100.86,53.56a61.07,61.07,0,0,1-6.12-.64l-.32,2.13s5.26.55,6,.45S100.86,53.56,100.86,53.56Z"/><path class="cls-29" d="M83.72,54.27c1.53-.29,4.58-1,6.09-1.5l.63,2.06s-5.24,1.29-6,1.3S83.72,54.27,83.72,54.27Z"/><path class="cls-30" d="M88.63,59c-.06-1.57-.78-2.81-1.62-2.78s-1.48,1.32-1.42,2.88.78,2.81,1.63,2.79S88.69,60.6,88.63,59Z"/><path class="cls-31" d="M86.78,77.3c.67-1.34,6.1-.76,8.13-1.31,1.69-.45-1.07,8.66-3.72,8.61S86.42,78,86.78,77.3Z"/><path class="cls-32" d="M87.34,77.35l1,2.12,5.69-.3s1-3,.25-2.68C92.63,77.12,89.93,76.19,87.34,77.35Z"/><path class="cls-31" d="M95.6,75.86a.58.58,0,0,0-.64-.37.44.44,0,0,0-.43.52.58.58,0,0,0,.64.37A.44.44,0,0,0,95.6,75.86Z"/><path class="cls-31" d="M87.23,77.2a.55.55,0,0,0-.64-.37.44.44,0,0,0-.42.51.56.56,0,0,0,.63.38A.44.44,0,0,0,87.23,77.2Z"/><path class="cls-30" d="M97.91,59.84c0-1.57-.72-2.83-1.57-2.81s-1.5,1.29-1.48,2.85.73,2.83,1.57,2.82S97.94,61.4,97.91,59.84Z"/><path class="cls-19" d="M100.9,74.18c-1.29-2.13-6.7-16-7.61-19.4-.68-2.55-1.52,20.07-1.52,20.07S101.8,75.68,100.9,74.18Z"/><path class="cls-23" d="M79,39.15a13.09,13.09,0,0,1,9,.7,11.9,11.9,0,0,0-1.87.37c-9.31,2.72-9.68,9.11-9.25,18.28,0,0,.53,18.15,2.2,22.55,1.91,5,9.05,9.78,16.59,12,0,0,0,.1,0,.14C86,92.75,74.46,86.54,72,80c-1.68-4.4-2.21-22.55-2.21-22.55C69.32,48.25,69.69,41.86,79,39.15Z"/><path class="cls-19" d="M73,67.3c-1.93-2.76-5.66-3.93-7.07-1.42s4.08,11,6.6,10.06S74.05,68.87,73,67.3Z"/><path class="cls-15" d="M71.56,68.42c-1.13-1.61-3.31-2.3-4.14-.83s2.39,6.43,3.86,5.88S72.2,69.34,71.56,68.42Z"/><path class="cls-19" d="M72,71.2c-.72-1-2.1-1.46-2.63-.53s1.52,4.1,2.46,3.75S72.39,71.79,72,71.2Z"/><path class="cls-28" d="M75.51,72.22H72s-.1-7.54-4.5-9.42l1.22-20.87S80.44,43.32,75.51,72.22Z"/><path class="cls-19" d="M65.13,108.48c-7.57,10.22-35.49,28.23-35.21,47.12,0,3,4.57,6.43,9.8,5.59,3.36-.53,10-8.25,12.7-14.27,5.5-12.34,8.74-29.86,15.14-37.52Z"/><path class="cls-15" d="M33.71,151.08c0,2.61,4,5.58,8.5,4.86,2.92-.47,8.85-6.94,11.19-12.17,1.87-4.18,1.57-1.9-.8,3.41-2.69,6-9.52,13.48-12.88,14-5.23.84-9.75-2.58-9.8-5.59-.09-5.9,2.57-11.71,6.5-17.22S33.56,141.37,33.71,151.08Z"/><path class="cls-19" d="M45.11,31.12c-1.65-1.81-1.8-4.13-.27-5s3.71.14,5,1.93,1.2,3.51.07,4.34S46.62,32.77,45.11,31.12Z"/><path class="cls-15" d="M46,30.66c-1.07-1.18-1.17-2.69-.18-3.24s2.42.1,3.27,1.26.78,2.29.05,2.82S46.94,31.73,46,30.66Z"/><path class="cls-19" d="M47.83,31.31c-.63-.69-.69-1.58-.11-1.9a1.66,1.66,0,0,1,1.92.74c.46.63.46,1.35,0,1.66A1.49,1.49,0,0,1,47.83,31.31Z"/><path class="cls-9" d="M51.08,48C54.13,45.3,55,57.87,58.63,60,65,62,69.31,63.4,69,64.71c-.86,3.45-5.28,3.11-11.7,1.57S48.47,50.21,51.08,48Z"/><path class="cls-16" d="M65.45,62.14c.38,1.54.08,4.6,1.73,4.77-2,.92-5.48.43-9.9-.63-4.81-1.15-7.36-9.61-7.24-14.72C51.31,56.47,54.31,68.65,65.45,62.14Z"/><path class="cls-33" d="M72.5,366.78H88s-8.39-5-12.3-5C72.5,361.82,72.5,366.78,72.5,366.78Z"/><path class="cls-33" d="M19.44,366.78H32.81a4.21,4.21,0,0,0-3.45-4.53C25.26,361.39,19.44,366.78,19.44,366.78Z"/><path class="cls-26" d="M76.8,151.91,90.56,166.7l11.84-16.45-15-17.42Zm13.41,8.33-8.49-9.13,6.57-11.78,9.23,10.75Z"/><polygon class="cls-26" points="91.08 145.39 88.61 142.51 86.85 145.67 89.13 148.12 91.08 145.39"/><polygon class="cls-26" points="91.98 154.98 89.51 152.1 87.74 155.26 90.02 157.7 91.98 154.98"/><polygon class="cls-26" points="95.24 150.15 92.77 147.27 91 150.43 93.28 152.87 95.24 150.15"/><polygon class="cls-26" points="87.58 150.63 85.11 147.75 83.35 150.91 85.63 153.35 87.58 150.63"/><polygon class="cls-26" points="91.74 150.31 89.27 147.42 87.51 150.59 89.78 153.03 91.74 150.31"/><polygon class="cls-26" points="88.31 130.2 86.92 128.58 85.93 130.35 87.21 131.73 88.31 130.2"/><polygon class="cls-26" points="75.35 152.29 73.96 150.66 72.97 152.44 74.25 153.82 75.35 152.29"/><polygon class="cls-26" points="73.08 150.08 71.73 148.52 70.78 150.23 72.01 151.56 73.08 150.08"/><polygon class="cls-26" points="73.52 154.4 72.18 152.84 71.22 154.55 72.46 155.88 73.52 154.4"/><polygon class="cls-26" points="105.45 150 104.06 148.38 103.07 150.16 104.35 151.54 105.45 150"/><polygon class="cls-26" points="107.19 147.49 105.8 145.87 104.81 147.65 106.09 149.03 107.19 147.49"/><polygon class="cls-26" points="107.54 152.07 106.15 150.45 105.16 152.23 106.44 153.6 107.54 152.07"/><polygon class="cls-26" points="91.94 169.83 90.55 168.21 89.56 169.98 90.84 171.36 91.94 169.83"/><polygon class="cls-26" points="89.52 172.82 88.13 171.2 87.14 172.97 88.42 174.35 89.52 172.82"/><polygon class="cls-26" points="94.65 172.68 93.26 171.06 92.27 172.83 93.55 174.21 94.65 172.68"/><polygon class="cls-26" points="85.47 127.87 84.08 126.25 83.08 128.03 84.36 129.4 85.47 127.87"/><polygon class="cls-26" points="90.6 127.73 89.21 126.11 88.22 127.88 89.5 129.26 90.6 127.73"/><path class="cls-12" d="M52.66,33.28c-1.94-1-2.59-7.93-6.79-8.58,0,0-.54-7.87,6.68-11.75,2.21,6.47.48,9.13-.38,11.59C50.88,28.26,52.66,33.28,52.66,33.28Z"/><path class="cls-18" d="M91.55,235.68c-2.31.84-11.1,2-16.57-1.81,0,0,2,5.87,8.09,6.15A9,9,0,0,0,91.55,235.68Z"/><polygon class="cls-34" points="87.28 216.23 92.45 215.59 92.45 218.34 87.28 218.98 87.28 216.23"/><path class="cls-19" d="M66.65,66.61c.43.6,2.48-.35,4.36,1.55.32.32.78.85,1.25,1.37.84.91,2.11,1.5,2.42,1.09s-.68-.74-1.29-1.38-.73-.74-.6-.88.91.48,1.84,1.1c1.19.79,2.12,1.13,2.41.7s-.63-.73-1.64-1.55-1.29-1-1-1.38c.13-.19.76.21,1.86.63,1.28.5,2.21.52,2.34.12.2-.57-.56-.4-2-1.15-1.79-1-3.61-1.66-4.1-2.79s1.82-2.17,1-2.76c-.63-.46-2,1.2-3.91,3C68.12,65.78,66.19,66,66.65,66.61Z"/><polygon class="cls-35" points="68.72 67.94 69.56 63.38 65.4 61.74 64.36 68.35 68.72 67.94"/><path class="cls-8" d="M107.39,202c-1,1.2-10.56,9.27-26.14,5.5C91.76,206.87,98.22,205.9,107.39,202Z"/><path class="cls-33" d="M72.39,127.15a19.16,19.16,0,0,1,4,5s-7.76-1.3-8-5.83Z"/><path class="cls-33" d="M104,114.12a19,19,0,0,1,5.62,3S102,119,100,114.88Z"/><path class="cls-11" d="M63.36,45.55c-1-2.54-.9-5,.34-5.53s3.09,1.13,4.14,3.68.9,5-.34,5.54S64.41,48.1,63.36,45.55Z"/><path class="cls-11" d="M70.56,41.76c-.16-1.95,3.9-3.87,9.07-4.29s9.48.8,9.64,2.75-3.9,3.86-9.06,4.29S70.72,43.7,70.56,41.76Z"/><path class="cls-19" d="M148.61,125.84c2.08-2.16,9.48-3.11,8.35-5.55-1-2.18-5.81-4.29-10,3.82Z"/><path class="cls-19" d="M149.91,120.48c1.54,4,6.3,2.21,7.66,1.3s1.13-4.3-.07-5.15S149.31,119,149.91,120.48Z"/><path class="cls-19" d="M154.11,117.51c.86-2.31.72-5.38-.22-5.49s-.45,2.5-1.74,4.37-2.14,3.36-1.38,4S153.24,119.81,154.11,117.51Z"/><path class="cls-19" d="M159.05,115.75c1.87-1.34,2.57-2.5,2.18-3s-1.41.35-3.28,1.7-4.55,2.56-4.17,3S157.17,117.09,159.05,115.75Z"/><path class="cls-19" d="M160.26,118.21c2.13-.94,3.58-2.74,3.3-3.28s-2,.81-4.16,1.75-3.45,1.67-3.17,2.21S158.14,119.15,160.26,118.21Z"/><path class="cls-19" d="M159.49,121.08c2.08-1,3-2.1,2.74-2.63s-1.54.42-3.63,1.46-3.53,1.78-3.24,2.31S157.4,122.12,159.49,121.08Z"/><path class="cls-19" d="M64.05,114.74c1.41-2.58,8-5.07,6.36-7.26-1.45-2-6.36-3.07-8.28,5.88Z"/><path class="cls-19" d="M64,109.14c2.36,3.62,6.32.88,7.35-.3s0-4.52-1.28-5.12S63.07,107.75,64,109.14Z"/><path class="cls-19" d="M67.13,105.3c.24-2.48-.62-5.51-1.51-5.43s.18,2.6-.56,4.72c-.79,2.3-1.17,3.8-.32,4.23S66.88,107.78,67.13,105.3Z"/><path class="cls-19" d="M71.25,102.52c1.4-1.73,1.77-3,1.3-3.42s-1.21.65-2.61,2.38-3.58,3.5-3.11,3.89S69.84,104.24,71.25,102.52Z"/><path class="cls-19" d="M73,104.72c1.72-1.38,2.64-3.48,2.25-4s-1.68,1.22-3.41,2.6-2.78,2.39-2.39,2.87S71.22,106.1,73,104.72Z"/><path class="cls-19" d="M72.92,107.74c1.67-1.46,2.29-2.72,1.89-3.19s-1.32.74-3,2.2-2.82,2.51-2.43,3S71.24,109.21,72.92,107.74Z"/><path class="cls-19" d="M96.44,41.66c.61-.12,1.67.63,1.9,1.93s-.68,3.64-1.29,3.76-1.07-1.82-1.3-3.12S95.83,41.77,96.44,41.66Z"/><path class="cls-19" d="M94,44.2c-.44-.39-.08-1.23.81-1.85s2-.81,2.42-.41.08,1.23-.82,1.85S94.42,44.6,94,44.2Z"/><path class="cls-19" d="M91.23,41.87c0-.62.81-1,1.72-.89s1.62.75,1.58,1.37-.81,1-1.72.89S91.19,42.49,91.23,41.87Z"/><path class="cls-19" d="M91.31,43.53c0-.62.8-1,1.72-.89s1.62.74,1.58,1.37-.81,1-1.72.88S91.27,44.15,91.31,43.53Z"/><path class="cls-19" d="M91.84,45.16c0-.62.81-1,1.72-.89s1.62.74,1.59,1.36-.81,1-1.72.89S91.81,45.78,91.84,45.16Z"/><path class="cls-19" d="M92.57,42.7c.75-1.39,2.13-2.46,3.6-1.67s2.46,3.13,1.71,4.52a2.55,2.55,0,0,1-3.71.88C92.7,45.65,91.83,44.09,92.57,42.7Z"/><path class="cls-15" d="M266.1,304.21c0,.68-2,1.16-2.23,3.61,0,.42-.05,1.06-.09,1.71-.06,1.15-.63,2.3-1.1,2.18s.05-.93.11-1.74.09-1-.09-1a6.15,6.15,0,0,0-.67,1.85c-.39,1.26-.86,2-1.33,1.89s0-.89.26-2.06.36-1.44-.09-1.59c-.21-.06-.43.59-1,1.52-.63,1.09-1.29,1.64-1.62,1.43-.49-.31.16-.62.72-2,.72-1.72,1.63-3.27,1.3-4.36s-2.62-.56-2.39-1.43c.18-.7,2.16-.26,4.64,0C264.54,304.44,266.06,303.49,266.1,304.21Z"/><path class="cls-19" d="M341.54,316.76c-.29.63,1.51,1.79.83,4.17-.12.41-.34,1-.54,1.63-.36,1.1-.24,2.38.26,2.43s.29-.89.53-1.67.26-.93.44-.89a6,6,0,0,1,0,2c-.08,1.32.08,2.21.59,2.24s.3-.84.5-2c.17-1,.18-1.47.66-1.46.23,0,.2.7.38,1.76.2,1.25.64,2,1,1.91.57-.13.06-.63,0-2.09-.06-1.87-.37-3.63.34-4.55s2.71.39,2.81-.51c.09-.72-2-1-4.43-1.63C343,317.52,341.85,316.11,341.54,316.76Z"/><path class="cls-15" d="M312.5,290.7l3-27.47-7.41,4.17-5.24,20.66A42.82,42.82,0,0,1,312.5,290.7Z"/><path class="cls-15" d="M261.62,307.35c4.52.57,30.48-12.51,30.48-12.51l-4.3-3.72S255.4,306.57,261.62,307.35Z"/><path class="cls-19" d="M344.54,318.36c-.45-4.71-18.78-27.91-18.78-27.91l-2.64,5S345.16,324.87,344.54,318.36Z"/><path class="cls-15" d="M336.74,312.5c-6.13-7-13.62-17-13.62-17l2.64-5s8.11,10.27,13.68,18.53A13.61,13.61,0,0,0,336.74,312.5Z"/><path class="cls-36" d="M259,362.91c-4.4-16.59-3.25-46.85-7-57.44-3.15-8.78-8.2-9.38-9.94-16.08-4.64-17.9,24-52.93,18.29-91.31-2.48-16.73-17-20.86-23.57,3.4-2.94,10.83-11.72,51.82-10.43,78.15.84,17.13,20.47,38.12,27.65,84.26Z"/><path class="cls-37" d="M251.94,305.47c3.78,10.59,2.63,40.85,7,57.44l-2,.38c-4.8-16.63-5.38-45.24-9.58-55.26-3.61-8.59-7.56-9.82-9.65-16.41-3.4-10.68,7.28-26.72,14.61-49.53,1.24-3.84,5.56-3,3.74,2-6.86,19-16.13,34.76-13.45,45.08C244.4,295.87,248.79,296.69,251.94,305.47Z"/><path class="cls-38" d="M259.05,366.78h-16s9.92-6.9,12.51-5.6C258,362.38,259.05,366.78,259.05,366.78Z"/><path class="cls-39" d="M232.3,179.47c15.59-10.62,32.09-42.66,30.07-62.13-.78-7.56-10-12.26-18.24-2.7-6,6.93-13.59,23.2-15.37,27.59-3.49,8.57-7.24,19.91-7.31,30C221.83,176.63,230,181,232.3,179.47Z"/><path class="cls-40" d="M246,114.16s15.66-3.63,16.36,3.18c2,19.47-14.48,51.51-30.07,62.13-2.32,1.52-10.47-2.84-10.85-7.29,0-.57,1.4-2.76,1.42-3.35C236.8,155.63,239.37,120.31,246,114.16Z"/><path class="cls-41" d="M239.13,179.06c1.47-1.35,1.68-7.37-2.67-10.77C231,164,222.29,165,220.05,166.42s4.32,19.8,9.38,19.79c4.44,0,3.71-6.92,3.71-6.92S236.57,181.41,239.13,179.06Z"/><path class="cls-42" d="M225,174.82c5.44,0,10.05-2.67,11.67-6.37,4.14,3.43,3.93,9.28,2.48,10.61-2.56,2.35-6,.23-6,.23s.73,6.92-3.71,6.92c-3,0-6.47-6.35-8.39-11.88A15.75,15.75,0,0,0,225,174.82Z"/><path class="cls-19" d="M174.66,189.22c12.57-2.33,45.49,3.5,58.17-10.54,2-2.23,1-7.83-3.42-10.77-2.84-1.89-13-1.09-19.07,1.49-12.5,5.29-26.89,16.24-36.84,17.5Z"/><path class="cls-15" d="M228,177.65c1.74-1.92.88-6.72-2.94-9.26-1.61-1.07-6-1.13-10.24-.41,5.73-1.38,12.41-1.55,14.63-.07,4.44,2.94,5.44,8.54,3.42,10.77-12.68,14-45.6,8.21-58.17,10.54l-.47-.93C187,187,217.79,188.9,228,177.65Z"/><path class="cls-36" d="M266.4,365.67c.83-12.11,7.08-32.67,9.69-48,1.37-8-1.46-18.78-2.58-28.63-1.26-11,15.43-45.7,6.63-86.55-3.29-15.27-19.28-19.95-25.89.55-2.82,8.76-1.44,17.14.63,32.36.36,2.62,3.6,33.72,7.23,53.09,4.76,25.46-1.38,75.12-1.38,75.12Z"/><path class="cls-37" d="M281,225.83c-5.72.65-35.85-7.39-45-16.07l1.07-5.17,44.54,12.07Z"/><path class="cls-37" d="M273.64,319c1.37-8-2.89-18.71-4-28.57-1.25-11,5.78-43.92-3-84.77-2-9.16,2.31-16.48-4.28-14.75,7.42-4.81,16.34.48,18.64,11.17,8.8,40.84-7.86,76-6.6,87,1.13,9.86,3.88,20.42,2.52,28.43-2.62,15.34-9.65,36-10.48,48.13l-3-1.09C264.92,352.27,271.2,333.32,273.64,319Z"/><path class="cls-39" d="M280.87,219.47c3.38-.48,2.88-1.87,2.91-3.56.88-52.69,29.12-66.38,22-85.15-7.22-19.06-44.42-30.74-58.44-19.16-7.22,6-9.47,38.25-9.32,58.18.12,15.52-2.46,29-1.67,38.74C241.85,212.51,268.65,221.21,280.87,219.47Z"/><path class="cls-43" d="M246.81,152.9a12,12,0,0,1-5.53-5.83c-1.66-3.7-1.93-9.36-1.56-13.21,0,0-1.1,12.38-1.1,15.73C241,153.17,246.81,152.9,246.81,152.9Z"/><path class="cls-39" d="M246.5,152.92c2.74.51-4.56-3.89-5.77-8.58s-.39-11.08.78-15.41c0,0-5.38,13.36-3.61,17.39C239.9,150.87,246.5,152.92,246.5,152.92Z"/><polygon class="cls-44" points="286.01 112.38 274.8 123.81 270.38 114.32 261.64 119.39 262.07 107.64 270.43 112.54 284.83 111.19 286.01 112.38"/><path class="cls-45" d="M291.14,159.29l-53.22-18.68a45,45,0,0,1,1.37-6.31c11.32,3.35,39.63,12.67,50.39,16.58Z"/><path class="cls-45" d="M294,167.92l-55.36-20.36c-1.86-1.78-1-3.64-1-4.69,10.86,3.2,46.85,17,57.83,20.95Z"/><path class="cls-39" d="M321.07,187.11c3.22-18.6-14.14-64.83-26.71-68.6S284.28,146.42,291,163c3.47,8.57,10.15,19.84,17.31,26.87C311.75,192.66,320.55,189.83,321.07,187.11Z"/><path class="cls-40" d="M290,157c3.19,7.88,8.5,17.23,15.09,23.69.62-1.57,2.45-5.33,4.77-5.82,2.73-.57,7,1.54,8.17,1.7,1.05-12.05-5.66-34.32-14.26-49,11.32,15.72,19.71,45.44,17.26,59.61-.52,2.72-9.32,5.55-12.78,2.72-7.16-7-13.68-18-17.15-26.57-2.52-6.24-5.4-16.36-4.77-22.41C287.24,146.74,288.17,152.32,290,157Z"/><path class="cls-41" d="M308,177.91a2.82,2.82,0,0,0,3,1.52c1.45-.33,1.33-2.09,1.11-3.15,4,1,11.29,4.42,13.43,9.43,1.95,4.59-2.49,8.66-4.91,8.85a6.71,6.71,0,0,1-6.15-2.91s-4.12,5.18-8.57,2.91C301.89,192.53,304.92,182.22,308,177.91Z"/><path class="cls-42" d="M310.39,186.79a13.44,13.44,0,0,0,11.07-5.93,12.93,12.93,0,0,1,4,4.85c1.95,4.59-2.49,8.66-4.91,8.85a6.71,6.71,0,0,1-6.15-2.91s-4.12,5.18-8.57,2.91c-2.3-1.18-2.24-5.13-1.2-9.09A13.14,13.14,0,0,0,310.39,186.79Z"/><path class="cls-19" d="M317.4,233.6c.15-12.72,11.52-36.54,2.1-51.21-1.63-2.53-8.41-4-11.31.21-1.07,1.57-1.41,13.27-.07,19.72,2.76,13.23,8.15,24,7.45,34Z"/><path class="cls-15" d="M313,185.18c-2.25,0-4.22,3.43-5.7,8.74-.15-5.23.23-10.32.91-11.32,2.9-4.24,9.68-2.74,11.31-.21,5.28,8.21,4.26,19.93,1.46,31.36C320.44,198.64,317.47,185.18,313,185.18Z"/><path class="cls-15" d="M283.86,112.7l-.39-31.89-13.82,5.34L264,110.34S274.75,117.42,283.86,112.7Z"/><path class="cls-46" d="M318.87,365.77c.84-12.29,2.31-40.83,1.68-42.36s-18.23-16.64-24.09-13.82-4.19,33.66-2.52,56.18h2.94s.55-28.18,9.14-25.62,10.34,25.62,10.34,25.62Z"/><path class="cls-47" d="M315.78,340.63c-4.21-.16-16.27-4.29-23.35-4.26-.86-14.61,3.49-26.52,4-26.78,5.86-2.82,23.46,12.28,24.09,13.82s-.84,30.07-1.68,42.36h-1.36C317.91,353,317.39,340.69,315.78,340.63Z"/><path class="cls-47" d="M301.89,341.68c-4.65,5.74-5,24.09-5,24.09H295.5C295.57,360.13,296.27,343.29,301.89,341.68Z"/><path class="cls-48" d="M321.49,339.49c-4.82-.63-26.71-3.64-30.48-6.81-.62-10.94-.47-48,8.33-50.72,5.49-1.72,21.43,1.38,22.67,6.81C325.15,302.51,321.49,339.49,321.49,339.49Z"/><path class="cls-49" d="M319.66,289.36c-.74-3.91,1.49-4,2.35-.23,3.14,13.64-.52,50.36-.52,50.36l-2.11-.28C320,331.09,321.93,301.45,319.66,289.36Z"/><path class="cls-49" d="M299.34,282.37c1.12-.35,2-.3,1.21,0-7.35,2.79-7.54,40.06-7,51.63a9.43,9.43,0,0,1-2.51-1.28C290.39,321.87,290.54,285.1,299.34,282.37Z"/><path class="cls-48" d="M336.73,303.67s-8.48,12.84-9.11,13-13.83-26.47-9.9-31.7C326.52,288,336.73,303.67,336.73,303.67Z"/><path class="cls-49" d="M330.27,313.21a22.89,22.89,0,0,1-2.65,3.46c-.45.11-7.42-12.33-9.75-23.06A147.57,147.57,0,0,0,330.27,313.21Z"/><path class="cls-48" d="M278.68,294.28s4.66,14.73,5.22,15.06,20.65-21.54,18.3-27.67C292.87,282.08,278.68,294.28,278.68,294.28Z"/><path class="cls-49" d="M298.88,291.23c-5.25,8.36-14.53,18.94-14.91,18.72a48.55,48.55,0,0,1-1.83-5.14A133.73,133.73,0,0,0,298.88,291.23Z"/><path class="cls-33" d="M266.6,366.78h-16s9.92-6.9,12.51-5.6C265.56,362.38,266.6,366.78,266.6,366.78Z"/><path class="cls-33" d="M321,366.78h-6.2s1-3.11,2.75-3A3.79,3.79,0,0,1,321,366.78Z"/><path class="cls-33" d="M298.25,366.78h-8.41s3.41-3.11,5.18-3A3.44,3.44,0,0,1,298.25,366.78Z"/><polygon class="cls-50" points="285.96 111.89 284.99 109.14 270.43 112.54 274.48 121.76 285.96 111.89"/><polygon class="cls-50" points="262.18 106.72 264.61 105.91 271.35 112.98 262.77 118.17 262.18 106.72"/><polygon class="cls-51" points="250.16 216.53 255.19 217.41 255.01 220.47 249.97 219.58 250.16 216.53"/><path class="cls-37" d="M261.37,238.72c-5.17.65-11.16,1-14.72-3.24,0,0,2.37,7.8,9.22,8.74C258.62,244.6,261.37,238.72,261.37,238.72Z"/><path class="cls-45" d="M285.8,138.42S285.15,121,297.93,120l-1.29-1C288.84,119.86,284.8,125,285.8,138.42Z"/><path class="cls-45" d="M240.83,129s3.4-20.22,21.68-22l-5.1.4C249.46,108.26,242.29,114.76,240.83,129Z"/><path class="cls-52" d="M317.07,284.18s-9.51.8-16.82-2.59C306.7,280.6,311.06,281.63,317.07,284.18Z"/><polygon class="cls-51" points="278.2 232.73 276.09 223.51 271.24 223.51 277.39 237.1 278.2 232.73"/><path class="cls-27" d="M245.17,131.83a31.51,31.51,0,0,0-5.34-5.94h.08l-.49-.37A50.61,50.61,0,0,0,228,118.29h0l-.29-.29.23-.2L227,115l-1.17.27-.28-23.43c-5.27-.1-10.4,1.87-15,4.81l-3.62,15.47-.34-.36-2.43.81,0,.27-.47,0c-1.1,0-2.17.12-3.22.25l-1.1.09a16.26,16.26,0,0,0-4.66,1.25l-.65.26a11,11,0,0,0-1.09,3.37c-.65,6.49,12.81,13.14,30.05,14.86C231.52,133.84,239.34,133.33,245.17,131.83Zm-41-18.92h0Z"/><path class="cls-53" d="M283.59,95.66c5.28-5.74,14.53-2.45,13.92-13.36A10,10,0,0,0,301,71.9c-1.55-7-4.75-7.86-4.75-7.86s8-3.16,2.41-11.26-11.08-3.4-11.08-3.4a5.39,5.39,0,0,0-3.47-7.21c-5.53-2-10.58,2.9-10.58,2.9s-4.15-6-8.47-4.81-14.3,6-3.1,22.34S283.59,95.66,283.59,95.66Z"/><path class="cls-54" d="M273.07,57.6c9.2,0,17.77-1.5,21.22-8.89a11.81,11.81,0,0,1,4.35,4.07c5.6,8.1-2.41,11.26-2.41,11.26s3.2.91,4.75,7.86a10,10,0,0,1-3.47,10.4c.61,10.91-8.64,7.62-13.92,13.36,0,0-10.45-16.66-21.65-33.06a34.87,34.87,0,0,1-4-7.43C262,58.93,266.9,57.6,273.07,57.6Z"/><path class="cls-19" d="M285.28,70.55s-.8,25.75-6.76,29.25-10.71,6.11-21.08,4.82c-3-10.68-2.59-27.4-.57-33.75.66-2.09-1.51-3.82-.85-5.53,4.32-11.15,13.69-16.65,21.43-13.69C286.37,55.05,286.31,61.45,285.28,70.55Z"/><path class="cls-23" d="M268,74c-1.46-.88-5.27-6.55-3.3-7.32a6.15,6.15,0,0,1,5.93,1.63c1.22,1.21,2.3,4.15,1.87,4.83A3.32,3.32,0,0,1,268,74Z"/><path class="cls-23" d="M256.37,72.72c-1.23,5.59-1.63,15.18-.33,23.59,2.47-.19,3.62-9.64,4.57-16.78,1-7.34,3.62-14.65-3.57-14.77a3,3,0,0,0-2.06,1C255.39,67.16,257.61,67.06,256.37,72.72Z"/><path class="cls-55" d="M257.43,74c-.29-1.2.26-3.61,1.67-3.52s1.33,2.81,1.17,3.88C260,76.14,257.9,75.91,257.43,74Z"/><path class="cls-53" d="M256.71,66.24c-1.71.31-3.29-1.95-1.34-2.52s3.84-.94,4.44-.11.95,1.54.54,1.74A11.31,11.31,0,0,1,256.71,66.24Z"/><path class="cls-53" d="M269.79,67.78c1.65.61,2.54-1.44.71-2.36s-3.65-1.63-4.44-.92-1,1.7-.48,1.78S268.25,67.21,269.79,67.78Z"/><path class="cls-56" d="M257,91.56l8.71-.22s.26,4.18-1.06,4.85S256.5,99.26,257,91.56Z"/><polygon class="cls-57" points="265.04 91.67 264.74 94.29 257.6 94.09 257.33 91.83 265.04 91.67"/><path class="cls-55" d="M266.87,74c-.28-1.2.28-3.61,1.67-3.52s1.3,2.8,1.14,3.86C269.42,76.05,267.32,75.83,266.87,74Z"/><path class="cls-56" d="M266.06,91.36a.53.53,0,1,0-1-.2.53.53,0,1,0,1,.2Z"/><path class="cls-58" d="M263.93,98.83c0-.52-1-.41-2.14-.41s-2-.11-2,.41.92.93,2.06.93S263.93,99.34,263.93,98.83Z"/><path class="cls-54" d="M273.29,97.61c6-3.5,8.11-29.65,8.11-29.65.77-6.81,1-12.11-2.68-15.77,7.63,3.52,7.54,9.72,6.56,18.36,0,0-.1,26.36-6.06,29.86s-11.63,6.14-22,4.85c-.94-.16-1.1-1.86-.32-2.69C265.36,102.91,268,100.7,273.29,97.61Z"/><path class="cls-19" d="M282.84,83.64c3.1-2.62,6-3,7.86.31s-4.08,9-8.64,7.23S280.8,85.36,282.84,83.64Z"/><path class="cls-15" d="M284.1,85c1.84-1.56,3.56-1.78,4.68.19s-2.43,5.34-5.15,4.31S282.88,86.05,284.1,85Z"/><path class="cls-19" d="M282.38,86.6c1.19-1,2.29-1.15,3,.12s-1.57,3.45-3.33,2.79S281.59,87.27,282.38,86.6Z"/><path class="cls-54" d="M284.4,56.52c-2.22-.9-3.45,11.86-5.93,30.84l1.26.92s3.48-6.1,6.29-6.74C286,81.54,287.85,57.92,284.4,56.52Z"/><path class="cls-53" d="M284.94,54.3c0,2.87-4.78,4.67-10.68,4s-10.68-3.51-10.68-6.38,4.78-4.67,10.68-4"/><polygon class="cls-52" points="327.64 317.18 326.67 315.56 336.59 302.62 338.21 304.02 327.64 317.18"/><path class="cls-52" d="M306.49,314.26a8.15,8.15,0,0,1-7.86-8.08,7.57,7.57,0,0,1,7.65-7.66h.23a8.15,8.15,0,0,1,7.87,8.09,7.58,7.58,0,0,1-7.65,7.66Zm-7.21-8.08a7.51,7.51,0,0,0,7.23,7.44h.22a6.93,6.93,0,0,0,7-7,7.5,7.5,0,0,0-7.24-7.44h-.21A6.94,6.94,0,0,0,299.28,306.18Z"/><polygon class="cls-52" points="311.25 294.1 309.53 297.87 308.45 297.33 309.1 292.91 311.25 294.1"/><polygon class="cls-52" points="297.31 315.68 300.72 313.33 301.37 314.34 298.55 317.81 297.31 315.68"/><polygon class="cls-52" points="310.73 319.44 309.64 315.45 310.81 315.17 313.15 318.97 310.73 319.44"/><path class="cls-52" d="M309.38,305a.53.53,0,0,1-.53.54.54.54,0,0,1,0-1.07A.53.53,0,0,1,309.38,305Z"/><path class="cls-52" d="M305.47,304.64a.54.54,0,1,1-.53-.54A.53.53,0,0,1,305.47,304.64Z"/><path class="cls-16" d="M310.46,291.84c-8-1.25-14.73-4-17.83-7.06a32.76,32.76,0,0,1,5.89-2.45,4,4,0,0,1,.82-.37,8,8,0,0,1,1.16-.27l-.25-.1a29.69,29.69,0,0,1,4.34-.37l3.21-12.62a19.48,19.48,0,0,1,6.69-.17c.15,0,.29.07.44.1l-1.56,14.23c1.19.4,2.4.86,3.7,1.42l-.3,0a15.54,15.54,0,0,1,3.12,1.75,32.73,32.73,0,0,1,7.06,5.6C322.85,292.67,316.92,292.86,310.46,291.84Z"/><path class="cls-59" d="M295.92,236.33c3.12-2.54,7.22-.63,7.22-.63a6.51,6.51,0,0,1,5.66-6.79c6.05-1,10.15,6.15,10.15,6.15s4.68-5.09,10.15-.63,1.17,10,1.17,10,4.68-1.7,7,4.88a12.13,12.13,0,0,1-1.36,11.23c1.56,10.82-10.74,15.27-19.13,16.33l-22.44-15.27S292.79,238.88,295.92,236.33Z"/><path class="cls-59" d="M310.5,237.69c9.81,0,18.62,7.37,21.23.77a8.06,8.06,0,0,1-1.46,5.93s4.68-1.7,7,4.88a12.13,12.13,0,0,1-1.36,11.23c1.56,10.82-10.74,15.27-19.13,16.33l-22.44-15.27a161.26,161.26,0,0,1-.22-17.7C298.09,247.52,303.64,237.69,310.5,237.69Z"/><path class="cls-19" d="M322.26,264.56c3.17-3.31,8.3-5.67,8.64.41C331.16,269.64,314.29,272.87,322.26,264.56Z"/><path class="cls-15" d="M323.89,264.83c2-2.05,5.14-3.52,5.35.24C329.4,268,319,270,323.89,264.83Z"/><path class="cls-19" d="M290.57,261.13c.86-10.78,12.57-25.2,23.34-24s10.82,13.82,9.63,26-5.78,16-16.57,14.94C293.75,276.84,289.74,271.69,290.57,261.13Z"/><path class="cls-15" d="M304.91,261.3c.27-.76-1-1.09-2.61-1.66s-3-1.14-3.26-.37.84,1.83,2.46,2.4S304.65,262.06,304.91,261.3Z"/><path class="cls-23" d="M311.82,262.82c-.22.69.62,1.36,1.82,1.73s2.3.31,2.51-.38-.58-1.54-1.78-1.91S312,262.14,311.82,262.82Z"/><path class="cls-23" d="M292,259.1c-.21.69.63,1.36,1.82,1.74s2.3.3,2.51-.38-.58-1.55-1.78-1.92S292.22,258.42,292,259.1Z"/><path class="cls-19" d="M306.37,261.74c.2-.53-1-.94-2.61-1.59s-2.95-1.25-3.16-.73.91,1.46,2.5,2.1S306.16,262.26,306.37,261.74Z"/><path class="cls-60" d="M313.14,257.21a2.48,2.48,0,0,0-1.9-2.85c-1.17-.14-1.85.89-2,2.3s.69,1.78,1.87,1.91S313,258.61,313.14,257.21Z"/><path class="cls-61" d="M313,257.42a2.48,2.48,0,0,0-1.91-2.84c-1.17-.14-1.84.89-2,2.29s.69,1.79,1.87,1.92S312.82,258.83,313,257.42Z"/><path class="cls-60" d="M300.9,254.76c.37-1.37-.19-2.67-1.18-2.84s-1.75.81-2.12,2.18.31,1.76,1.3,1.93S300.53,256.12,300.9,254.76Z"/><path class="cls-61" d="M300.72,255c.37-1.37-.19-2.67-1.18-2.84s-1.75.81-2.12,2.18.3,1.75,1.3,1.92S300.35,256.33,300.72,255Z"/><path class="cls-62" d="M302.5,247.83l0,1a12.12,12.12,0,0,0-5.63.92l-.09-1.29A13.49,13.49,0,0,1,302.5,247.83Z"/><path class="cls-62" d="M311.06,249.08l-.16,1a14.38,14.38,0,0,1,5.81,2.06l.34-1.24A15.74,15.74,0,0,0,311.06,249.08Z"/><path class="cls-63" d="M312.19,256.47a1.46,1.46,0,1,0-1.62,1.45A1.54,1.54,0,0,0,312.19,256.47Z"/><path class="cls-63" d="M300.46,254a1.41,1.41,0,0,0-.58-1.91,1.43,1.43,0,0,0-1.85.81,1.41,1.41,0,0,0,.58,1.91A1.43,1.43,0,0,0,300.46,254Z"/><path class="cls-64" d="M300.2,253.15a.48.48,0,0,0-.25-.64.51.51,0,0,0-.67.23.49.49,0,0,0,.26.64A.5.5,0,0,0,300.2,253.15Z"/><path class="cls-64" d="M311.62,255.64a.54.54,0,0,0-.49-.58.52.52,0,0,0-.6.45.54.54,0,0,0,.49.58A.53.53,0,0,0,311.62,255.64Z"/><path class="cls-65" d="M309.64,266.79l-13.34-2.65s.34,6.68,5.63,7.14S309.64,266.79,309.64,266.79Z"/><path class="cls-66" d="M307.73,267l-2.12.91s-7.52-1.34-7.59-1.47-.78-1.51-.78-1.51Z"/><path class="cls-19" d="M304.6,275.45c10.79,1.07,15.38-2.71,16.57-14.93.79-8.1,1-16.33-2-21.34,5.51,4.23,5.37,14.24,4.41,24-1.19,12.23-5.78,16-16.57,14.94-7.78-.77-12.35-2.88-14.64-6.64C295,273.62,298.92,274.89,304.6,275.45Z"/><path d="M320.74,266.7a10.56,10.56,0,0,0,3.72-5.82c.81-3.72,1.78-13.51-1.94-19,0,0,0,18.52-4.37,23.94Z"/><path class="cls-19" d="M321.91,266.64c1.3-1.36,3.42-2.34,3.56.17C325.57,268.72,318.63,270.06,321.91,266.64Z"/><path class="cls-19" d="M182.46,187.66c-3,.48-7.88,5.55-9.27,3.47-1.25-1.86-.31-6.53,8.74-5.58Z"/><path class="cls-19" d="M177.29,185.93c2.42,3.16-1.69,5.85-3.2,6.41-1.66.62-4.2-1.32-4.24-2.65S176.36,184.72,177.29,185.93Z"/><path class="cls-19" d="M172.47,187.58c-2.39-.51-4.87-2.17-4.43-2.94s2.33.93,4.59.91c2.45,0,4,.09,4.06,1S174.87,188.1,172.47,187.58Z"/><path class="cls-19" d="M168.25,190.4c-2.15.73-3.5.67-3.68.14s1.08-.88,3.24-1.6,4.67-2.13,4.85-1.6S170.41,189.67,168.25,190.4Z"/><path class="cls-19" d="M169.63,192.56c-2,1.12-4.28,1.3-4.57.82s1.81-1.12,3.77-2.24,3.32-1.75,3.61-1.27S171.59,191.44,169.63,192.56Z"/><path class="cls-19" d="M172.44,193.43c-2,1-3.44,1.22-3.72.73s1.21-.95,3.24-2,3.45-1.75,3.73-1.26S174.46,192.38,172.44,193.43Z"/><path class="cls-54" d="M268.9,91.58a41.68,41.68,0,0,1-15.56-.34s6-3.23,8-3S268,89,268.9,91.58Z"/><path class="cls-19" d="M252.69,88.33c5.64-7.18,8.05-18.84,9-22.27,4.59,1.86-.68,22.11-.68,22.11S255.27,89.79,252.69,88.33Z"/><path class="cls-53" d="M284,60.65c-.55-1.35,1.27-3.36,4.06-4.48s5.5-.94,6,.42-1.27,3.36-4.07,4.48S284.58,62,284,60.65Z"/><path class="cls-53" d="M284,65.43c-.17-.8,1-1.74,2.68-2.1s3.13,0,3.3.79-1,1.74-2.67,2.1S284.22,66.23,284,65.43Z"/><path class="cls-19" d="M316.37,225.93c1.16.31.82,4,4.81,5.78.68.29,1.75.68,2.82,1.1,1.88.74,3.5,2.34,3,3.06s-1.53-.6-2.86-1.16c-1.17-.48-1.56-.68-1.7-.39s1.25,1.1,2.72,2.16c1.89,1.35,2.93,2.58,2.42,3.28s-1.48-.53-3.31-1.59c-1.58-.92-2.2-1.41-2.71-.74-.23.31.74,1,2,2.47,1.48,1.67,2,3.08,1.48,3.52-.78.64-.94-.61-2.87-2.3-2.49-2.17-4.57-4.56-6.59-4.63s-2.39,4.07-3.74,3.2c-1.06-.69.78-3.76,2.57-7.78C315.87,228.68,315.14,225.61,316.37,225.93Z"/><path class="cls-67" d="M604.78,367.47h15.06s-2.41-4.81-4-4.81C613.37,362.66,604.78,367.47,604.78,367.47Z"/><path class="cls-67" d="M571.76,367.47h16.52s-2.64-4.81-4.42-4.81C581.17,362.66,571.76,367.47,571.76,367.47Z"/><path class="cls-59" d="M600.09,41c-3.48.17-14-7.31-8.52-11.27s12.36,3.81,21.83,4C616.3,33.74,600.09,41,600.09,41Z"/><path class="cls-59" d="M609.77,39.94c-3.48.17-14-7.3-8.52-11.27s12.37,3.81,21.83,4C626,32.68,609.77,39.94,609.77,39.94Z"/><path class="cls-59" d="M616.75,39.56c-3.47-.3-12.86-9.16-6.87-12.33s11.71,5.48,21.06,6.94C633.81,34.61,616.75,39.56,616.75,39.56Z"/><path class="cls-68" d="M590.32,31.14c.73,3.85,8.48,7.41,11.18,6.87,0,0,4-2.53,7.45-4.93a19.58,19.58,0,0,0,4.45.61c2.9.05-13.31,7.31-13.31,7.31C597,41.15,588.3,35.24,590.32,31.14Z"/><path class="cls-58" d="M596.49,76.32s-3.44,1.34-6,0c1.09-2.08,4.33-16,4.33-16S597,75.15,596.49,76.32Z"/><path class="cls-19" d="M598.44,91.39c4.89,1.53,15.36-4.78,16-15.77s-2.89-44.61-12-41.93c-5.19,1.53-13.13,15-9.77,22.29C595,61.14,590.2,71.24,598.44,91.39Z"/><path class="cls-69" d="M618.89,76.74l1.53,20.75L603,99.64c-.29-9.8,1.56-24.39,3.66-27.89C611.34,64,618.89,76.74,618.89,76.74Z"/><path class="cls-59" d="M619.91,89.25c12.21-19.12,30-39.54,21.78-51.48-13.44-19.54-42.13-4.08-42.13-4.08s.1,2.87.53,7.31C601.41,55,605.85,84.62,619.91,89.25Z"/><path class="cls-70" d="M620.64,167s21.77,5.13,23.45,2.41c11.15-18.06-20.87-19-20.87-19Z"/><path class="cls-71" d="M639.65,106.41c5.6,8,15.51,58.72,4.12,63.18s-24-30-20.39-46.42S639.65,106.41,639.65,106.41Z"/><path class="cls-72" d="M586.23,162.79s-21.88-2.84-22.62-5.67C558.73,138.32,589,148,589,148Z"/><path class="cls-73" d="M626.83,107.27s1.83-7.63,0-9.47c-5.5-5.5-25-.31-25-.31l-2.75,5.2Z"/><path class="cls-74" d="M610.22,98.58A3.91,3.91,0,0,0,609.16,96c6.14-1,14.4-1.47,17.67,1.8,1.83,1.84,0,9.47,0,9.47l-23.13-3.82C607.34,103.29,610.22,101.18,610.22,98.58Z"/><path class="cls-74" d="M599.8,102.81l-.75-.12.09-.18A6.62,6.62,0,0,0,599.8,102.81Z"/><path class="cls-75" d="M580.72,193.39c6.86-.92,16.31-1.3,24.46.23,16.56,4.19,22.26,19.4,19.41,46.1-.75,7-2.86,26.11-3.61,52.26-.78,27.17,6.91,14.57-1.28,75.07l-.43,0a5.06,5.06,0,0,1-4.56-5c-.1-11.34-.68-41.05-4-56.41-2.52-11.82-3.56-69.67-8.85-70.9-5.13,1-5.73,32.54-7.67,57.06-2.16,27.24,5.3,15-6,75.69h0a5,5,0,0,1-4.61-5.31c.71-11.71,2.15-41.44-.32-56.73C580.2,286.12,574.14,225,580.72,193.39Z"/><path class="cls-76" d="M588.34,287.79c1.94-24.51,6.1-51.11-2.45-63.64-5.7-8.35-7.75-17.51-6-26.66,6.27-3.06,34-1.75,34.15-1.72,16.56,4.2,13.37,17.25,10.52,43.95-.75,7-2.86,26.11-3.61,52.27-.78,27.16,6.91,14.56-1.28,75.06l-.43,0a5,5,0,0,1-3.44-1.9c8-59.63-3.34-53.46-2.56-80.5.69-24-6.91-45.89-12.48-49.19-4.09,4.79-4.76,33.75-6.55,56.34-2.16,27.24,5.3,15-6,75.69h0a5,5,0,0,1-3.76-2.24C595.42,305.72,586.19,314.88,588.34,287.79Z"/><path class="cls-77" d="M629.88,231c-9.77,7.25-49.25.76-51.28-38.95s7.53-93,17.3-92.59,44.73-1.71,45,10.66C641.29,130.33,621.74,168,629.88,231Z"/><path class="cls-59" d="M603,72.14l-3.44.63s-7.38-37.7.63-39.47C608.78,31.41,603,72.14,603,72.14Z"/><path class="cls-78" d="M579.59,140.08c-.15,6.71-3.15,31,3.18,31,3.31,0,11.34-15.86,14.59-49.86Z"/><path class="cls-71" d="M593.15,99.83c-8.55,7.1-38.36,49.41-29.82,57.42s35.31-26.09,39-44.88S593.15,99.83,593.15,99.83Z"/><path class="cls-68" d="M604.59,45.24C608,51.4,603,72.14,603,72.14l-2.49.46C601.47,65.54,603.59,53.49,604.59,45.24Z"/><path class="cls-59" d="M591.86,56.08c.74,1.17,2.58-.5,1.29-2S590,53.09,591.86,56.08Z"/><path class="cls-19" d="M600.46,66.59c1-5,5.15-10.12,6.78-6.47s1.57,12.12-3.66,14.21C599.65,75.9,599.78,70,600.46,66.59Z"/><path class="cls-69" d="M600.92,67.14c.68-3.39,3.47-6.82,4.57-4.36s1,8.16-2.47,9.57C600.37,73.41,600.46,69.44,600.92,67.14Z"/><path class="cls-19" d="M600.34,69.15c.26-1.83,1.66-3.74,2.31-2.46s.8,4.33-1,5.18C600.23,72.51,600.16,70.39,600.34,69.15Z"/><path class="cls-79" d="M623,118.65c.83,3.73-9.44,41.86-6.31,53.22.77-25,8.85-45.18,7.71-53.12Z"/><path class="cls-72" d="M579.05,160.92a236.44,236.44,0,0,0,.35,29.94c1.15,14.13,7.09,25.07,14.38,30.64,4.74,3.61,8.26,8.74,13,11-13.37-5.08-27-17.45-28.17-40.49A262.18,262.18,0,0,1,579.05,160.92Z"/><path class="cls-67" d="M489.66,367.47h11.9s-1.17-4.9-2.81-4.9C496.25,362.57,489.66,367.47,489.66,367.47Z"/><path class="cls-67" d="M504.81,367.47h7.78s-2.46-4.9-4.1-4.9C506,362.57,504.81,367.47,504.81,367.47Z"/><path class="cls-15" d="M512.38,89.15c-.66,3.74.41,13.86.41,13.86l-12-1c-.18-10-.43-15.2.81-18.77C504.31,75.31,513.57,82.55,512.38,89.15Z"/><path class="cls-73" d="M515.1,106.23s2.81-5.23,1-6.33c-9-5.54-17-2.68-19-1s-.38,5.31-.38,5.31Z"/><path class="cls-19" d="M526,201.08c2.1,19.32-16.31,134.12-16.31,165.19h-3c0-10.24-.62-39.62.28-64,.23-6.32,1.75-13.65,1.87-19.92.57-29.6,3.11-62.9-4.05-61.65-8.23,1.43-5.38,126.23-5.15,145.57l-2.43-.54c-1.37-23.37-4.39-44.85-6.12-59.72-.9-7.75.42-15.46-.51-21.46-7.08-45.85-11.11-59.91-10.8-87.16C480.14,168.35,521.65,160.94,526,201.08Z"/><path class="cls-15" d="M509,276c.74-27.81,2.45-56.48-4.2-55.32-3.66.63-5.13,25.69-5.61,55-1.67,0-3.34,0-5,0s-3.32,0-5,0c-6.21-39-9.7-52.91-9.41-78.32.33-29,41.84-36.45,46.18,3.69,1,9.42-2.83,41.53-7,75.57Q514,276.26,509,276Z"/><path class="cls-80" d="M522.05,265.12c2.7-45.88,14.74-71.41-2.07-87.18l-34.25-1.46c-16.2,23.88-3.6,52.71.34,88.83C500.65,264.18,509,268.76,522.05,265.12Z"/><path class="cls-81" d="M525.36,185.31c-1.1,1.57-9.82,6.9-22.92,5.55a44.22,44.22,0,0,1-20.62-7.17l2.57-4.73,39.35,3.24Z"/><path class="cls-81" d="M503.05,208.3c23.16,0,25-7.49,25-14.74v-.26c2.82,15.91-4.06,38.49-6,71.82-13,3.64-21.4-.94-36,.19-2.79-25.55-9.89-47.45-8.09-66.53C479.75,203.43,485.82,208.3,503.05,208.3Z"/><path class="cls-19" d="M483.54,155c-2.51.34,13.7-30.89,17.49-29.41C502.11,135.68,490.13,160.22,483.54,155Z"/><path class="cls-73" d="M482.83,154.53c-1.32-1.62-3.07-39.24,4-46.52S488.88,162,482.83,154.53Z"/><path class="cls-73" d="M483.91,142.37c-1,2.23-5.29,18,1.28,13.66Z"/><path class="cls-73" d="M488.17,141.15c.82,2.24,1.15,18.87-4.32,14.54Z"/><path class="cls-82" d="M482,133.73c3.17,3.91.88-18.2,7.06-25.16,3.39,7.8-.47,53.17-6.35,46.58-.71-.79-1.36-11.67-1-22.44A2.9,2.9,0,0,0,482,133.73Z"/><path class="cls-83" d="M487.5,126.75c1-8.08,2.56-13.47,1.64-18,3.28,8.27-.15,53.1-6.41,46.4a12.17,12.17,0,0,1-.66-3.82C486.55,153,486.14,138,487.5,126.75Z"/><path class="cls-19" d="M524.5,156.38c-1.6,2.73-15.33-27-16.47-30C508.4,119.85,528.86,145.89,524.5,156.38Z"/><path class="cls-73" d="M525.41,155.72c1.57-1.5,6.85-38.85-.08-46.69S518.23,162.65,525.41,155.72Z"/><path class="cls-82" d="M528.8,128.16c-.14,12.67-2.42,27.5-3.36,28.41-4.42,4.25-7.1-21-5.48-36.45C528.21,110,525.84,130.91,528.8,128.16Z"/><path class="cls-83" d="M520,120.12c9.89-12.16,3.93,16.34,3.75,18a75.06,75.06,0,0,0,.32,18.82C520.48,155.29,518.52,133.84,520,120.12Z"/><path class="cls-73" d="M525.37,184.37c-7.68-11.83-9.24-16.87-8.1-32.59.7-9.59,13.59-36.89,7.48-43.15-4.57-4.68-33.42-13.92-39.65,2.06-3.08,7.9,4,30.6,4.36,42.34a57.16,57.16,0,0,1-7.68,29.68C492.16,188,514.28,191.06,525.37,184.37Z"/><path class="cls-82" d="M489.12,152.82c-.28-9.88-5-27.27-4.76-37.32,3.11,14.73,10.55,3.81,19.91,3.81,8.54,0,16.45,14.05,21.61.1-1.46,12.35-8.13,25.77-8.61,32.37-1.14,15.72.42,20.76,8.1,32.59-10.79,9.14-33.21,4.16-43.59-1.66A57,57,0,0,0,489.12,152.82Z"/><path class="cls-73" d="M518.74,188a40.23,40.23,0,0,1-18.06,1,52.28,52.28,0,0,1-13.05-3.53C498.72,177.46,506.58,177.28,518.74,188Z"/><path class="cls-27" d="M489.11,105.26a16.19,16.19,0,0,1,7-3.07,3.4,3.4,0,0,1,.95-3.31,10.3,10.3,0,0,1,3.58-1.63c-.1-5.63-.11-9.37.42-12.16q2.79-.25,5.76-.26c1.72,0,3.4.07,5,.2a7.48,7.48,0,0,1,.51,4.12,46.63,46.63,0,0,0,0,8.89,24.14,24.14,0,0,1,3.75,1.86c1.06.65.52,2.71-.1,4.31a40.45,40.45,0,0,1,5.18,2.11C515.36,107.88,497.84,108.48,489.11,105.26Z"/><path class="cls-59" d="M515,94.08c10.46-.66,24.91-24.9,18.06-42.55S491.33,27,496.73,37.42c0,0-16.41,1.7-13.91,32.59C484.48,90.56,488.63,95.74,515,94.08Z"/><polygon class="cls-82" points="505.76 129.46 505.21 114.71 503.86 131.62 505.76 129.46"/><path class="cls-80" d="M492.91,265l-6.77.41s-3.71-24.57-5-31.11C481.14,234.27,491.11,257.47,492.91,265Z"/><path class="cls-68" d="M496.73,37.42l6.29,2.2s-6.34-3.65-5.48-6.24C497.54,33.38,495.06,34.65,496.73,37.42Z"/></g></g></g></svg>