<?xml version="1.0" standalone="no"?>
<!DOCTYPE svg PUBLIC "-//W3C//DTD SVG 20010904//EN"
 "http://www.w3.org/TR/2001/REC-SVG-20010904/DTD/svg10.dtd">
<svg version="1.0" xmlns="http://www.w3.org/2000/svg"
 width="512.000000pt" height="512.000000pt" viewBox="0 0 512.000000 512.000000"
 preserveAspectRatio="xMidYMid meet">

<g transform="translate(0.000000,512.000000) scale(0.100000,-0.100000)"
fill="#000000" stroke="none">
<path d="M4050 5098 c-27 -7 -147 -121 -540 -514 l-505 -504 -1167 0 -1167 0
-3 384 c-3 449 2 426 -102 426 -140 0 -276 -60 -386 -170 -87 -86 -131 -162
-160 -276 -20 -75 -20 -116 -20 -1718 0 -1804 -3 -1711 62 -1844 44 -90 159
-206 249 -249 133 -65 74 -63 1374 -63 l1179 0 -227 -228 c-247 -248 -253
-257 -202 -307 l24 -25 1310 0 1310 0 20 26 21 27 0 1302 c0 1258 -1 1304 -19
1326 -13 16 -29 23 -55 23 -33 0 -47 -10 -156 -119 l-120 -119 -2 777 -3 776
-23 23 c-22 23 -27 23 -322 28 l-300 5 216 215 c135 135 223 230 235 255 24
52 24 138 0 190 -11 24 -78 99 -172 191 -121 119 -163 154 -194 163 -48 13
-107 13 -155 -1z m252 -276 c175 -175 174 -169 53 -291 l-85 -86 -172 173
-173 172 86 85 c122 121 116 122 291 -53z m-3782 -1237 c0 -1132 0 -1145 20
-1165 25 -25 71 -26 101 -1 l24 19 3 746 2 746 1085 0 c597 0 1085 -3 1085 -7
0 -4 -97 -105 -215 -223 -234 -235 -240 -245 -190 -295 53 -54 35 -69 610 505
l530 530 173 -173 172 -172 -778 -778 -777 -777 -172 172 -173 173 160 161
c174 175 184 191 135 239 -49 50 -62 42 -272 -167 -141 -141 -197 -203 -208
-233 -8 -22 -66 -184 -128 -360 l-114 -320 -140 -5 c-120 -4 -144 -8 -162 -24
-28 -25 -27 -73 1 -103 l21 -23 1069 0 1069 0 24 25 c30 29 32 64 6 96 l-19
24 -758 5 -757 5 224 78 224 78 785 785 786 784 324 -2 325 -3 3 -800 2 -800
-550 -550 c-475 -475 -550 -554 -550 -580 0 -39 35 -75 74 -75 28 0 105 74
703 672 l673 673 0 -333 0 -332 -79 0 c-96 0 -131 -20 -131 -76 0 -59 26 -74
125 -74 l85 0 0 -115 0 -115 -83 0 c-98 0 -127 -17 -127 -75 0 -55 35 -75 131
-75 l79 0 0 -115 0 -115 -85 0 c-99 0 -125 -15 -125 -73 0 -55 28 -71 126 -76
l84 -3 0 -109 0 -109 -79 0 c-96 0 -131 -20 -131 -76 0 -59 26 -74 125 -74
l85 0 0 -180 0 -180 -1152 0 -1153 0 393 393 c215 216 392 400 392 409 0 59
-60 99 -108 73 -15 -7 -94 -81 -177 -164 l-150 -151 -1251 0 c-1198 0 -1255 1
-1313 19 -158 49 -260 162 -293 325 -30 149 57 329 203 422 56 35 148 64 204
64 32 0 52 7 72 24 l28 24 0 302 0 302 -28 24 c-34 29 -56 30 -91 3 l-26 -20
0 -255 0 -254 -28 -6 c-84 -19 -113 -29 -172 -60 -36 -19 -89 -55 -118 -80
l-52 -46 0 1415 c0 879 4 1434 10 1466 15 78 59 160 120 222 59 59 165 119
212 119 l28 0 0 -1145z m3475 925 l170 -170 -70 -70 -70 -70 -172 172 -173
173 67 67 c37 38 70 68 73 68 3 0 82 -76 175 -170z m-1788 -2052 c-7 -4 -54
-22 -106 -39 l-93 -31 -71 70 -70 70 38 107 38 107 138 -138 c94 -94 134 -141
126 -146z"/>
<path d="M4038 1082 c-408 -408 -428 -429 -428 -464 0 -28 6 -42 26 -57 26
-21 37 -21 450 -21 293 0 431 3 448 11 13 7 30 24 36 38 7 18 10 160 8 455
l-3 428 -24 19 c-13 10 -37 19 -54 19 -28 0 -78 -47 -459 -428z m392 -112 l0
-280 -282 0 -283 0 280 280 c154 154 281 280 282 280 2 0 3 -126 3 -280z"/>
</g>
</svg>
