<?xml version="1.0" standalone="no"?>
<!DOCTYPE svg PUBLIC "-//W3C//DTD SVG 20010904//EN"
 "http://www.w3.org/TR/2001/REC-SVG-20010904/DTD/svg10.dtd">
<svg version="1.0" xmlns="http://www.w3.org/2000/svg"
 width="322.000000pt" height="384.000000pt" viewBox="0 0 322.000000 384.000000"
 preserveAspectRatio="xMidYMid meet">

<g transform="translate(0.000000,384.000000) scale(0.100000,-0.100000)"
fill="#000000" stroke="none">
<path d="M1480 3745 l0 -95 -295 0 -295 0 2 -177 3 -178 720 0 720 0 0 175 0
175 -297 3 -298 2 0 95 0 95 -130 0 -130 0 0 -95z"/>
<path d="M480 2690 c0 -194 4 -350 9 -350 8 0 594 198 978 330 l142 49 378
-128 c208 -71 459 -156 557 -190 98 -34 183 -61 187 -61 5 0 9 158 9 350 l0
350 -1130 0 -1130 0 0 -350z"/>
<path d="M1005 2249 c-253 -87 -570 -195 -705 -240 -135 -45 -246 -83 -248
-84 -1 -1 22 -63 52 -136 29 -74 147 -366 261 -649 114 -283 210 -518 213
-522 4 -4 36 0 72 9 47 11 99 14 185 11 136 -5 210 -26 310 -84 l59 -36 76 40
c41 23 103 48 138 58 l62 17 0 889 c0 488 -3 887 -7 887 -5 -1 -215 -73 -468
-160z"/>
<path d="M1740 1523 l0 -890 63 -17 c34 -10 96 -35 137 -58 l76 -40 59 36
c100 58 174 79 310 84 86 3 139 0 185 -11 36 -9 66 -15 66 -14 1 2 330 806
489 1196 25 62 44 115 43 116 -2 1 -118 41 -258 88 -343 115 -1131 383 -1152
392 -17 7 -18 -39 -18 -882z"/>
<path d="M0 266 l0 -126 28 0 c17 0 55 -17 91 -40 129 -83 202 -106 315 -97
86 6 157 33 239 90 58 40 66 42 132 42 66 0 73 -2 134 -44 84 -57 149 -82 237
-88 113 -9 186 14 315 97 54 35 70 40 119 40 49 0 65 -5 119 -40 129 -83 202
-106 315 -97 88 6 153 31 237 88 61 42 68 44 134 44 67 0 73 -2 150 -52 120
-78 240 -101 360 -69 58 15 93 32 177 86 35 23 73 40 90 40 l28 0 0 126 0 127
-59 -6 c-64 -5 -131 -33 -225 -94 -52 -33 -67 -38 -120 -38 -57 0 -66 4 -140
53 -105 70 -163 86 -285 79 -108 -5 -144 -18 -244 -85 -111 -74 -160 -70 -307
24 -81 51 -145 67 -254 62 -98 -4 -158 -26 -270 -101 -42 -27 -58 -32 -111
-32 -57 0 -67 4 -131 46 -101 68 -136 81 -245 86 -122 7 -180 -9 -285 -79 -74
-49 -83 -53 -140 -53 -53 0 -68 5 -120 38 -94 61 -161 89 -225 94 l-59 6 0
-127z"/>
</g>
</svg>
