<?xml version="1.0" standalone="no"?>
<!DOCTYPE svg PUBLIC "-//W3C//DTD SVG 20010904//EN"
 "http://www.w3.org/TR/2001/REC-SVG-20010904/DTD/svg10.dtd">
<svg version="1.0" xmlns="http://www.w3.org/2000/svg"
 width="384.000000pt" height="256.000000pt" viewBox="0 0 384.000000 256.000000"
 preserveAspectRatio="xMidYMid meet">

<g transform="translate(0.000000,256.000000) scale(0.100000,-0.100000)"
fill="#000000" stroke="none">
<path d="M504 2542 c-91 -32 -167 -101 -204 -184 -16 -37 -236 -1004 -269
-1183 -14 -79 -31 -264 -31 -343 0 -53 4 -67 25 -87 20 -21 34 -25 82 -25 l58
0 17 -78 c33 -164 96 -279 218 -403 99 -101 185 -154 320 -201 90 -30 103 -32
240 -32 141 0 148 1 247 35 141 50 203 89 313 199 79 78 104 111 143 186 50
98 82 202 92 304 12 112 96 230 165 230 69 0 153 -118 165 -230 10 -102 42
-206 92 -304 39 -75 64 -108 143 -186 110 -110 172 -149 313 -199 99 -34 106
-35 247 -35 137 0 150 2 240 32 135 47 221 100 320 201 122 124 185 239 218
403 l17 78 58 0 c48 0 62 4 82 25 21 20 25 34 25 87 0 79 -17 264 -31 343 -38
207 -254 1148 -273 1190 -30 65 -93 127 -164 162 -50 24 -68 28 -147 28 -81
-1 -96 -4 -151 -32 -118 -61 -185 -169 -192 -310 -4 -77 -3 -83 21 -107 31
-31 75 -34 108 -7 20 16 24 31 29 99 5 61 12 89 30 115 84 122 266 111 323
-20 19 -44 240 -1038 261 -1175 8 -51 17 -124 20 -163 5 -75 2 -67 -29 57 -34
137 -114 268 -229 375 -84 79 -177 134 -296 175 -90 30 -102 32 -240 32 -138
0 -150 -2 -240 -32 -135 -47 -221 -100 -320 -201 -89 -90 -146 -176 -182 -273
l-21 -58 -37 30 c-99 78 -221 78 -320 0 l-37 -30 -21 58 c-36 97 -93 183 -182
273 -99 101 -185 154 -320 201 -90 30 -102 32 -240 32 -138 0 -150 -2 -240
-32 -119 -41 -212 -96 -296 -175 -115 -107 -195 -238 -229 -375 -31 -124 -34
-132 -29 -57 3 39 12 112 20 163 21 137 242 1131 261 1175 57 131 239 142 323
20 18 -26 25 -54 30 -115 5 -68 9 -83 29 -99 33 -27 77 -24 108 7 24 24 25 30
21 107 -7 141 -75 250 -192 309 -78 39 -185 48 -262 20z m590 -1117 c185 -39
355 -171 435 -337 125 -258 81 -536 -117 -737 -198 -200 -480 -246 -740 -120
-255 123 -397 420 -337 703 72 341 416 564 759 491z m1920 0 c185 -39 355
-171 435 -337 125 -258 81 -536 -117 -737 -198 -200 -480 -246 -740 -120 -255
123 -397 420 -337 703 72 341 416 564 759 491z"/>
<path d="M841 1264 c-203 -54 -361 -252 -361 -452 0 -77 74 -119 130 -74 18
14 25 34 31 85 8 69 40 143 83 194 39 47 135 92 212 102 52 6 71 13 86 31 26
32 23 76 -7 105 -29 30 -87 32 -174 9z"/>
<path d="M2761 1264 c-203 -54 -361 -252 -361 -452 0 -77 74 -119 130 -74 18
14 25 34 31 85 8 69 40 143 83 194 39 47 135 92 212 102 52 6 71 13 86 31 26
32 23 76 -7 105 -29 30 -87 32 -174 9z"/>
</g>
</svg>
